HIERARCHY
ROOT hip
{
  OFFSET 0 0 0
  CHANNELS 6 Xposition Yposition Zposition Zrotation Yrotation Xrotation
  JOINT abdomen
  {
    OFFSET 0 20.6881 -0.73152
    CHANNELS 3 Zrotation Xrotation Yrotation
    JOINT chest
    {
      OFFSET 0 11.7043 -0.48768
      CHANNELS 3 Zrotation Xrotation Yrotation
      JOINT neck
      {
        OFFSET 0 22.1894 -2.19456
        CHANNELS 3 Zrotation Xrotation Yrotation
        JOINT head
        {
          OFFSET -0.24384 7.07133 1.2192
          CHANNELS 3 Zrotation Xrotation Yrotation
          JOINT leftEye
          {
            OFFSET 4.14528 8.04674 8.04672
            CHANNELS 3 Zrotation Xrotation Yrotation
            End Site
            {
              OFFSET 1 0 0
            }
          }
          JOINT rightEye
          {
            OFFSET -3.6576 8.04674 8.04672
            CHANNELS 3 Zrotation Xrotation Yrotation
            End Site
            {
              OFFSET 1 0 0
            }
          }
        }
      }
      JOINT rCollar
      {
        OFFSET -2.68224 19.2634 -4.8768
        CHANNELS 3 Zrotation Xrotation Yrotation
        JOINT rShldr
        {
          OFFSET -8.77824 -1.95073 1.46304
          CHANNELS 3 Zrotation Xrotation Yrotation
          JOINT rForeArm
          {
            OFFSET -28.1742 -1.7115 0.48768
            CHANNELS 3 Zrotation Xrotation Yrotation
            JOINT rHand
            {
              OFFSET -22.5879 0.773209 7.07136
              CHANNELS 3 Zrotation Xrotation Yrotation
              JOINT rThumb1
              {
                OFFSET -1.2192 -0.487915 3.41376
                CHANNELS 3 Zrotation Xrotation Yrotation
                JOINT rThumb2
                {
                  OFFSET -3.37035 -0.52449 3.41376
                  CHANNELS 3 Zrotation Xrotation Yrotation
                  End Site
                  {
                    OFFSET -1.78271 -1.18214 1.43049
                  }
                }
              }
              JOINT rIndex1
              {
                OFFSET -7.75947 0.938293 5.60832
                CHANNELS 3 Zrotation Xrotation Yrotation
                JOINT rIndex2
                {
                  OFFSET -2.54057 -0.884171 1.56538
                  CHANNELS 3 Zrotation Xrotation Yrotation
                  End Site
                  {
                    OFFSET -1.62519 -0.234802 1.16502
                  }
                }
              }
              JOINT rMid1
              {
                OFFSET -8.24714 1.18213 3.41376
                CHANNELS 3 Zrotation Xrotation Yrotation
                JOINT rMid2
                {
                  OFFSET -3.10165 -0.590103 1.0647
                  CHANNELS 3 Zrotation Xrotation Yrotation
                  End Site
                  {
                    OFFSET -2.48547 -0.328903 0.83742
                  }
                }
              }
              JOINT rRing1
              {
                OFFSET -8.82822 0.546677 1.51678
                CHANNELS 3 Zrotation Xrotation Yrotation
                JOINT rRing2
                {
                  OFFSET -2.60934 -0.819778 -0.0198488
                  CHANNELS 3 Zrotation Xrotation Yrotation
                  End Site
                  {
                    OFFSET -2.33842 -0.294052 0.168128
                  }
                }
              }
              JOINT rPinky1
              {
                OFFSET -8.27202 -0.0477905 -0.4584
                CHANNELS 3 Zrotation Xrotation Yrotation
                JOINT rPinky2
                {
                  OFFSET -1.82734 -0.647385 -0.700984
                  CHANNELS 3 Zrotation Xrotation Yrotation
                  End Site
                  {
                    OFFSET -1.69225 -0.51767 -0.607171
                  }
                }
              }
            }
          }
        }
      }
      JOINT lCollar
      {
        OFFSET 2.68224 19.2634 -4.8768
        CHANNELS 3 Zrotation Xrotation Yrotation
        JOINT lShldr
        {
          OFFSET 8.77824 -1.95073 1.46304
          CHANNELS 3 Zrotation Xrotation Yrotation
          JOINT lForeArm
          {
            OFFSET 28.1742 -1.7115 0.48768
            CHANNELS 3 Zrotation Xrotation Yrotation
            JOINT lHand
            {
              OFFSET 22.5879 0.773209 7.07136
              CHANNELS 3 Zrotation Xrotation Yrotation
              JOINT lThumb1
              {
                OFFSET 1.2192 -0.487915 3.41376
                CHANNELS 3 Zrotation Xrotation Yrotation
                JOINT lThumb2
                {
                  OFFSET 3.37035 -0.52449 3.41376
                  CHANNELS 3 Zrotation Xrotation Yrotation
                  End Site
                  {
                    OFFSET 1.78271 -1.18214 1.43049
                  }
                }
              }
              JOINT lIndex1
              {
                OFFSET 7.75947 0.938293 5.60832
                CHANNELS 3 Zrotation Xrotation Yrotation
                JOINT lIndex2
                {
                  OFFSET 2.54057 -0.884171 1.56538
                  CHANNELS 3 Zrotation Xrotation Yrotation
                  End Site
                  {
                    OFFSET 1.62519 -0.234802 1.16502
                  }
                }
              }
              JOINT lMid1
              {
                OFFSET 8.24714 1.18213 3.41376
                CHANNELS 3 Zrotation Xrotation Yrotation
                JOINT lMid2
                {
                  OFFSET 3.10165 -0.590103 1.0647
                  CHANNELS 3 Zrotation Xrotation Yrotation
                  End Site
                  {
                    OFFSET 2.48547 -0.328903 0.83742
                  }
                }
              }
              JOINT lRing1
              {
                OFFSET 8.82822 0.546677 1.51678
                CHANNELS 3 Zrotation Xrotation Yrotation
                JOINT lRing2
                {
                  OFFSET 2.60934 -0.819778 -0.0198488
                  CHANNELS 3 Zrotation Xrotation Yrotation
                  End Site
                  {
                    OFFSET 2.33842 -0.294052 0.168128
                  }
                }
              }
              JOINT lPinky1
              {
                OFFSET 8.27202 -0.0477905 -0.4584
                CHANNELS 3 Zrotation Xrotation Yrotation
                JOINT lPinky2
                {
                  OFFSET 1.82734 -0.647385 -0.700984
                  CHANNELS 3 Zrotation Xrotation Yrotation
                  End Site
                  {
                    OFFSET 1.69225 -0.51767 -0.607171
                  }
                }
              }
            }
          }
        }
      }
    }
  }
  JOINT rButtock
  {
    OFFSET -8.77824 4.35084 1.2192
    CHANNELS 3 Zrotation Xrotation Yrotation
    JOINT rThigh
    {
      OFFSET 0 -1.70687 -2.19456
      CHANNELS 3 Zrotation Xrotation Yrotation
      JOINT rShin
      {
        OFFSET 0 -36.8199 0.73152
        CHANNELS 3 Zrotation Xrotation Yrotation
        JOINT rFoot
        {
          OFFSET 0.73152 -45.1104 -5.12064
          CHANNELS 3 Zrotation Xrotation Yrotation
          End Site
          {
            OFFSET -1.1221 -3.69964 12.103
          }
        }
      }
    }
  }
  JOINT lButtock
  {
    OFFSET 8.77824 4.35084 1.2192
    CHANNELS 3 Zrotation Xrotation Yrotation
    JOINT lThigh
    {
      OFFSET 0 -1.70687 -2.19456
      CHANNELS 3 Zrotation Xrotation Yrotation
      JOINT lShin
      {
        OFFSET 0 -36.8199 0.73152
        CHANNELS 3 Zrotation Xrotation Yrotation
        JOINT lFoot
        {
          OFFSET -0.73152 -45.1104 -5.12064
          CHANNELS 3 Zrotation Xrotation Yrotation
          End Site
          {
            OFFSET 1.1221 -3.69964 12.103
          }
        }
      }
    }
  }
}
MOTION
Frames:	4
Frame Time:	0.00833333
57.8949 83.6511 -66.0695 6.1471 -47.4182 0.3929 -4.14454 -2.96962 4.62565 2.83741 0.288944 1.27914 -2.05714 -3.6928 8.33393 2.06784 4.55076 16.9863 -0.0 0.0 0.0 -0.0 0.0 0.0 1.92434e-13 4.08207e-13 8.52587e-13 72.6509 27.3703 15.8944 -18.3927 -11.1152 34.9071 -0.0821112 -8.14738 -1.1529 -5.35427e-09 6.02883e-09 7.24556e-10 -9.25811e-09 1.04108e-08 1.23092e-09 -5.35427e-09 6.02883e-09 7.24537e-10 7.73091 5.47488 0.417314 -5.35427e-09 6.02883e-09 7.24556e-10 2.90554 0.965183 0.102902 -5.35426e-09 6.02883e-09 7.24559e-10 10.2786 0.731801 0.0259123 -5.35427e-09 6.02883e-09 7.24572e-10 2.22167 -0.733487 -0.20892 1.92476e-13 4.08203e-13 8.52289e-13 -73.1578 28.1015 -13.5172 19.5587 -12.4668 -37.6193 0.0636294 7.17897 -1.0143 -4.39406e-09 -2.38097e-09 -1.97319e-09 -7.60315e-09 -4.0412e-09 -3.38156e-09 -4.39406e-09 -2.38097e-09 -1.97318e-09 -7.73091 5.47488 -0.417314 -4.39406e-09 -2.38097e-09 -1.97318e-09 -2.90554 0.965183 -0.102902 -4.39406e-09 -2.38098e-09 -1.97319e-09 -10.2786 0.731801 -0.0259123 -4.39406e-09 -2.38098e-09 -1.97319e-09 -2.22167 -0.733487 0.20892 -2.03217e-16 0.0 -3.88251e-19 -15.1967 -9.46293 -4.89328 -0.103382 21.3341 0.416636 -5.22699 -10.7697 -17.6327 2.03217e-16 0.0 3.88251e-19 -4.00337 -11.4148 9.85843 0.022038 17.2111 -0.210287 -0.22701 -9.86979 -2.34963
57.5861 83.6894 -65.6468 6.3023 -48.8014 -0.3345 -4.09036 -3.04842 4.7253 2.79295 0.49615 1.30357 -1.51576 -3.99334 8.36227 1.32185 4.77742 16.896 -0.0 0.0 0.0 -0.0 0.0 0.0 1.39045e-13 3.23236e-13 1.13677e-12 72.6919 27.4479 15.9951 -18.4364 -11.1635 35.0072 -0.080586 -8.07303 -1.14223 -6.14189e-09 7.29957e-09 1.07464e-09 -1.06227e-08 1.26098e-08 1.83393e-09 -6.14189e-09 7.29957e-09 1.07462e-09 7.73091 5.47488 0.417314 -6.14188e-09 7.29957e-09 1.07464e-09 2.90554 0.965183 0.102902 -6.14187e-09 7.29957e-09 1.07464e-09 10.2786 0.731801 0.0259123 -6.14189e-09 7.29957e-09 1.07465e-09 2.22167 -0.733487 -0.20892 1.39083e-13 3.23231e-13 1.13651e-12 -73.1203 28.2617 -13.6201 19.5441 -12.4491 -37.5847 0.0680619 7.43798 -1.05127 -5.16168e-09 -1.5298e-09 -1.97961e-09 -8.93006e-09 -2.54966e-09 -3.38479e-09 -5.16168e-09 -1.5298e-09 -1.97961e-09 -7.73091 5.47488 -0.417314 -5.16167e-09 -1.5298e-09 -1.97961e-09 -2.90554 0.965183 -0.102902 -5.16168e-09 -1.5298e-09 -1.97961e-09 -10.2786 0.731801 -0.0259123 -5.16167e-09 -1.52981e-09 -1.97962e-09 -2.22167 -0.733487 0.20892 -2.03217e-16 0.0 -3.88251e-19 -15.2025 -9.46677 -4.76849 -0.103202 21.2971 0.415719 -5.20467 -10.7596 -17.5672 2.03217e-16 0.0 3.88251e-19 -4.02884 -11.3494 9.88975 0.0219222 17.1856 -0.210821 -0.186354 -9.80325 -2.17354
57.6779 83.6608 -65.7406 6.1184 -48.564 0.0628 -3.90724 -3.11442 5.04259 2.66953 0.851871 1.38615 -0.851318 -4.2827 8.39363 0.408411 4.91964 16.7753 -0.0 0.0 0.0 -0.0 0.0 0.0 5.47499e-14 1.77596e-13 1.37e-12 72.7331 27.4701 16.1296 -18.4692 -11.2 35.0819 -0.0785695 -7.97269 -1.12784 -6.3271e-09 7.98614e-09 1.37447e-09 -1.09459e-08 1.38008e-08 2.35276e-09 -6.3271e-09 7.98614e-09 1.37445e-09 7.73091 5.47488 0.417314 -6.3271e-09 7.98614e-09 1.37447e-09 2.90554 0.965183 0.102902 -6.32709e-09 7.98614e-09 1.37447e-09 10.2786 0.731801 0.0259123 -6.3271e-09 7.98614e-09 1.37448e-09 2.22167 -0.733487 -0.20892 5.47717e-14 1.77589e-13 1.36979e-12 -73.0449 28.4552 -13.7632 19.5121 -12.4102 -37.5087 0.0746756 7.79386 -1.10217 -5.45762e-09 -1.68249e-10 -1.71446e-09 -9.44049e-09 -1.81479e-10 -2.92064e-09 -5.45762e-09 -1.68253e-10 -1.71446e-09 -7.73091 5.47488 -0.417314 -5.45762e-09 -1.68245e-10 -1.71445e-09 -2.90554 0.965183 -0.102902 -5.45763e-09 -1.68247e-10 -1.71446e-09 -10.2786 0.731801 -0.0259123 -5.45762e-09 -1.68249e-10 -1.71446e-09 -2.22167 -0.733487 0.20892 -2.03217e-16 0.0 -3.88251e-19 -15.1692 -9.37848 -4.49418 -0.102747 21.2121 0.413792 -5.14814 -10.7579 -17.375 2.03217e-16 0.0 3.88251e-19 -4.03222 -11.1168 9.97269 0.0216886 17.1728 -0.212949 -0.0909347 -9.73397 -1.7404
57.6906 83.6448 -65.7651 5.9246 -48.6992 0.2799 -3.69035 -3.16717 5.40955 2.53293 1.21431 1.48251 -0.320054 -4.49498 8.42163 -0.320602 4.96502 16.6846 -0.0 0.0 0.0 -0.0 0.0 0.0 -2.60898e-14 2.87242e-14 1.50116e-12 72.775 27.4807 16.2278 -18.4889 -11.222 35.1265 -0.0765032 -7.86747 -1.11277 -6.07015e-09 8.08496e-09 1.55246e-09 -1.0504e-08 1.39757e-08 2.6625e-09 -6.07015e-09 8.08496e-09 1.55245e-09 7.73091 5.47488 0.417314 -6.07016e-09 8.08496e-09 1.55246e-09 2.90554 0.965183 0.102902 -6.07014e-09 8.08496e-09 1.55246e-09 10.2786 0.731801 0.0259123 -6.07016e-09 8.08496e-09 1.55247e-09 2.22167 -0.733487 -0.20892 -2.60936e-14 2.87146e-14 1.50099e-12 -73.014 28.6203 -13.8637 19.4677 -12.3566 -37.4034 0.0820922 8.15953 -1.1546 -5.37772e-09 1.14097e-09 -1.35343e-09 -9.30092e-09 2.08854e-09 -2.29371e-09 -5.37772e-09 1.14096e-09 -1.35343e-09 -7.73091 5.47488 -0.417314 -5.37772e-09 1.14097e-09 -1.35343e-09 -2.90554 0.965183 -0.102902 -5.37773e-09 1.14097e-09 -1.35343e-09 -10.2786 0.731801 -0.0259123 -5.37771e-09 1.14097e-09 -1.35343e-09 -2.22167 -0.733487 0.20892 -2.03217e-16 0.0 -3.88251e-19 -15.1349 -9.26619 -4.18661 -0.10217 21.117 0.41154 -5.08114 -10.7511 -17.1514 2.03217e-16 0.0 3.88251e-19 -4.03819 -10.8407 10.0681 0.0214474 17.1701 -0.215659 0.0179347 -9.67994 -1.23743
